<?xml version="1.0" encoding="UTF-8"?><!DOCTYPE svg PUBLIC "-//W3C//DTD SVG 1.1//EN" "http://www.w3.org/Graphics/SVG/1.1/DTD/svg11.dtd"><svg xmlns="http://www.w3.org/2000/svg"><defs><linearGradient id="b" gradientUnits="userSpaceOnUse" x1="41.233" y1="27.781" x2="28.367" y2="50.066"><stop offset=".006" stop-color="#FFF"/><stop offset=".013" stop-color="#F6F6F6"/><stop offset=".053" stop-color="#C8C8C8"/><stop offset=".098" stop-color="#9D9D9D"/><stop offset=".146" stop-color="#777"/><stop offset=".199" stop-color="#575757"/><stop offset=".257" stop-color="#3B3B3B"/><stop offset=".322" stop-color="#252525"/><stop offset=".399" stop-color="#141414"/><stop offset=".493" stop-color="#090909"/><stop offset=".626" stop-color="#020202"/><stop offset=".994"/></linearGradient><filter color-interpolation-filters="sRGB" id="a" filterUnits="userSpaceOnUse" x="13.431" y="30.62" width="36.25" height="24.595"><feColorMatrix values="1 0 0 0 0 0 1 0 0 0 0 0 1 0 0 0 0 0 1 0"/></filter></defs><symbol id="add" viewBox="0 0 24 24"><path fill="currentColor" d="M24 13.63v-2.346m-24-.032v2.314"/><path fill="currentColor" stroke="#1D1D1B" stroke-width="2" stroke-miterlimit="10" d="M0 12h24M12 0v24"/></symbol><symbol id="arrow-bottom" viewBox="0 0 24 24"><path fill="currentColor" fill-rule="evenodd" clip-rule="evenodd" d="M24.003 6.81l-1.505-1.47L11.99 15.652 1.498 5.412.004 6.88l10.49 10.24-.004.004 1.506 1.47.004-.003.004.006 1.496-1.47-.004-.003"/></symbol><symbol id="arrow-left" viewBox="0 0 24 24"><path fill="currentColor" fill-rule="evenodd" clip-rule="evenodd" d="M18.63 1.478L17.16-.025 6.862 10.497l-.004-.004L5.39 11.99l.005.005L5.39 12l1.473 1.503.004-.005 10.255 10.477 1.465-1.496L8.334 12"/></symbol><symbol id="arrow-right" viewBox="0 0 24 24"><path fill="currentColor" fill-rule="evenodd" clip-rule="evenodd" d="M5.39 1.478L6.86-.025l10.3 10.522.004-.004 1.467 1.497-.002.005.004.004L17.16 13.5l-.004-.005L6.9 23.975 5.434 22.48 15.688 12"/></symbol><symbol id="arrow-top" viewBox="0 0 24 24"><path fill="currentColor" fill-rule="evenodd" clip-rule="evenodd" d="M1.514 18.595L.01 17.125l10.523-10.3-.004-.004 1.495-1.465.005.004.005-.005 1.504 1.473-.007.004L24.01 17.087l-1.495 1.465L12.037 8.3"/></symbol><symbol id="burger" viewBox="0 0 24 24"><g stroke="currentColor" stroke-width="2" fill="none" fill-rule="evenodd"><path d="M0 5h24" class="burger-icon__top"/><path d="M0 12h24" class="burger-icon__middle"/><path d="M0 19h24" class="burger-icon__bottom"/></g></symbol><symbol id="calendar" viewBox="0 0 2048 2048"><title>Calendar</title><path d="M483.125 48c-50.38 0-91.156 40.693-91.156 90.97v327.717c0 50.195 40.855 90.97 91.154 90.97 50.38 0 91.156-40.756 91.156-91.032V138.97c0-50.277-40.775-90.97-91.155-90.97zm1098.094 0c-50.3 0-91.065 40.693-91.065 90.97v327.717c0 50.195 40.764 90.97 91.063 90.97 50.38 0 91.25-40.756 91.25-91.032V138.97c-.002-50.277-40.87-90.97-91.25-90.97zM0 310.188V2048h2048V310.187h-345.5v4.125c37.928 33.464 62.03 82.282 62.03 136.782 0 100.958-82.05 182.75-183.217 182.75-101.086 0-183.126-81.873-183.126-182.75 0-54.5 24.023-103.318 62.032-136.78v-4.127H604.31v4.125c37.928 33.464 61.938 82.282 61.938 136.782 0 100.958-82.04 182.75-183.125 182.75C381.958 633.844 300 551.97 300 451.094c0-54.5 24.022-103.318 62.03-136.78v-4.127H0zM56.97 706.78h1933.81v1284.126H56.97V706.78zM320 1024v256h256v-256H320zm384 0v256h256v-256H704zm384 0v256h256v-256h-256zm384 0v256h256v-256h-256zM320 1408v256h256v-256H320zm384 0v256h256v-256H704zm384 0v256h256v-256h-256z"/></symbol><symbol id="check-circle" viewBox="0 0 24 24"><path clip-rule="evenodd" fill="none" stroke="currentColor" stroke-width="2" stroke-miterlimit="10" d="M1.333 12C1.333 6.105 6.108 1.33 12 1.33c5.89 0 10.666 4.775 10.666 10.67 0 5.894-4.777 10.67-10.667 10.67S1.33 17.894 1.33 12z"/><path fill="none" stroke="currentColor" stroke-width="1.52" stroke-miterlimit="10" d="M16.068 7.895l-5.88 8.206-2.32-2.316"/></symbol><symbol id="checkmark" viewBox="0 0 1878 2048"><title>Checkmark</title><path d="M1853.37 296.916l.335-.683C1868.738 267.67 1878 235.21 1878 200.29 1878 89.725 1792.432 0 1686.797 0c-61.14 0-114.83 30.546-149.794 77.22l-.135-.07-.604 1.026c-9.73 13.052-18.255 26.992-24.63 42.3L716.354 1485.19 350.19 1016.753v.07c-34.293-53.78-92.68-89.178-158.987-89.178C85.635 927.647 0 1017.372 0 1127.937c0 56.104 22.214 106.74 57.716 143.094l486.16 685.334h.135c34.027 55.01 92.95 91.637 160.198 91.637 79.73 0 147.982-51.32 176.572-123.89l959.5-1605.397c4.9-7.04 9.06-14.35 13.087-22.004v.205z"/></symbol><symbol id="circle-outline" viewBox="0 0 24 24"><circle fill="none" stroke="currentColor" stroke-width="2.09" stroke-miterlimit="10" cx="12" cy="12" r="10.95"/></symbol><symbol id="circle" viewBox="0 0 24 24"><circle stroke="currentColor" stroke-width="2.09" stroke-miterlimit="10" cx="12" cy="12" r="10.95"/></symbol><symbol id="clipboard" viewBox="0 0 1646 2048"><title>Clipboard</title><path d="M823.016 0C679.534 0 563.243 116.143 563.243 259.656c0 5.145.32 10.303.47 15.47h-318.88v269.062H1401.2V275.125h-319.037c.32-5.166.437-10.324.437-15.47C1082.6 116.165 966.39 0 823.017 0zm0 142.72c64.44.084 116.868 52.34 116.868 116.936 0 64.512-52.43 116.664-116.868 116.813-64.59-.15-116.708-52.303-116.837-116.815.127-64.595 52.246-116.852 116.835-116.937zM0 440.655V2048h1646V440.656h-128.558v226.75H128.746v-226.75H0zm482.57 540l458.502 378.313L482.57 1737.31v-246.843H.03v-263h482.54V980.655z"/></symbol><symbol id="close" viewBox="0 0 2048 2048"><title>Close</title><path d="M1024 0C458.462 0 0 458.462 0 1024c0 565.537 458.462 1024 1024 1024 565.537 0 1024-458.463 1024-1024C2048 458.462 1589.537 0 1024 0zM668.687 563.22l361.907 361.53 361.562-361.53 67.75 67.75-361.562 361.56 361.562 361.564-67.75 67.75-361.625-361.532-361.904 361.532-67.75-67.75 361.78-361.563-361.78-361.56 67.813-67.75z"/></symbol><symbol id="cross" viewBox="0 0 24 24"><path fill="none" stroke="currentColor" stroke-width="2" stroke-miterlimit="10" d="M1.03 1.03l21.94 21.91"/><path fill="none" stroke="currentColor" stroke-width="1.992" stroke-miterlimit="10" d="M1.063 22.938L22.906 1.094"/></symbol><symbol id="desktop" viewBox="0 0 2048 2048"><title>Desktop</title><path d="M1280 1664H768c-10.288 90.124-76.032 191.168-128 192v64h768v-64c-83.143-51.523-117.65-107.164-128-192zm709.69-1535.853H58.307C26.105 128.147 0 154.252 0 186.454V1477.69c0 32.2 26.105 58.31 58.307 58.31H1989.69c32.2 0 58.31-26.11 58.31-58.31V186.454c0-32.202-26.11-58.307-58.31-58.307zM1920 1408H128V256h1792z" fill-rule="nonzero"/></symbol><symbol id="doge" viewBox="0 0 1024 1024"><path d="M39.772 526.7c16.017-98.073 8.947-50.503 27.964-127.076 0 0 89.92-110.59 426.78-161.763 73.61-11.18 354.95-94.495 389.055 260.21 38.45 399.884-17.495 512.07-123.103 520.687-195.596 15.96-459.323-5.364-555.59-52.353C88.07 909.39 18.547 827.28 14.6 703.6c-1.74-54.52 19.266-140.75 25.17-176.9z" fill="#e0d3a8"/><path d="M137.51 470.522c-5.43-31.26 12.757-64.326.545-81.223-25.107-34.74-76.576 70.98-89.935 87.695 6.495-38.834 15.038-73.864 20.404-96.965 9.403-40.553 35.724-83.69 67.758-107.563 31.956-23.813 64.104-21.993 86.405-45.764 52.45-55.907 66.625-73.343 75.078-141.785 2.134-17.273-.327-79.915 8.392-83.488 15.425-6.32 29.594 9.696 34.244 20.84 16.71 40.05 44.5 78.103 52.3 87.225 20.69 24.2 30.83 43.71 61.97 49.058 66.617 11.438 143.463 28.605 202.5 16.602 7.433-1.512 93.932-86.496 122.6-118.79 22.306-25.133 60.846-35.34 79.564-21.07 23.64 18.02 39.23 89.28 42.52 159.242 2.608 55.466-29.8 95.15-8.146 134.327 23.51 42.534 30.11 74.746 38.276 114.072 8.166 39.327 48.332 130.22 65.926 288.176 17.594 157.957 13.872 163.467-2.534 187.597-16.407 24.127-268.76 152.822-292.982 75.427-31.047-99.208 102.46-301.75 131.272-436.664 21.15-99.033-122.755-187.44-198.88-125.874-88.805 71.82-206.412 140.653-314.232 131.73-69.948-5.787-170.395-19.997-183.043-92.81zm-91.04 160.75c9.232-4.127 17.524-10.076 24.15-4.76 12.994 10.43-31.576 8.08-24.15 4.76zm15.075-46.732c-18.43-3.617-14.915-12.165 3.61-7.53 27.24 6.817 8.64 9.933-3.61 7.53z" fill="#cbb887"/><path d="M194.448 334.286c9.53-11.11 24.35-56.846 39.922-58.31 25.388-2.385 26.91 6.482 11.888 28.654-11.635 17.17-26.232 16.828-35.947 27.433-8.05 8.79-20.85 8.04-15.86 2.223z" fill="#cbac65"/><path d="M838.705 36.87c-33.128 3.115-55.33 37.566-71.914 53.647-97.325 94.373-72.215 96.158-162.31 96.712-43.475.265-165.92-33.445-255.19.31-35.014 13.24 15.175 82.315 3.566 108.17-6.238 13.89-21.2 50.294-22.884 55.546-7.102 22.126-20.76 53.838 3.974 62.76 16.666 6.01 93.943-106.15 122.023-116.83 28.08-10.68 78.93 6.737 90.364 52.16 9.7 38.528-51.124 49.327-42.272 77.343 7.364 23.303 41.015 63.916 57.975 51.93 43.692-30.883 101.92-92.143 113.647-120.648 12.415-30.172 37.567-29.224 46.09-24.207 8.52 5.018 58.683 33.47 84.606 80.387 24.565 44.458 42.09 93.332 38.705 140.626-4.41 61.646-166.466 338.904-136.864 428.39 15.704 47.474 78.585 27.56 153.49-1.236 74.905-28.797 101.915-47.747 119.58-63.026 17.668-15.28 22.37-86.998 3.126-192.356-18.866-103.284-36.802-162.122-46.286-193.79-10.397-34.714-15.642-80.062-18.565-95.38-3.25-17.028-7.614-52.974-23.86-87.398-12.127-25.693-27.627-33.15-10.725-79.614 16.9-46.464 16.675-123.44-6.698-190.97-8.588-24.81-28.08-43.612-39.577-42.53zM205.108 809.315c-60.024-7.122-82.82-69.087-100.198-115.584-15.337-41.035 22.877-78.654 14.188-117.736-4.886-21.978 12.054-41.474 47.807-53.282 19.833-9.347 70.974 9.69 80.852 1.542 17.24-14.22 2.87-1.964 30.473 30.55 6.513 7.672 19.22 26.09 9.332 52.044-4.25 11.158-12.264 32.785-6.8 34.605 13.567 4.52 6.115 23.936-5.43 13.886-10.763-9.37-.615 12.54 2.652 17.875 8.4 13.718 4.874-22.082 22.71-2.665 7.248 7.89-6.813 10.507-12.822 12.343-21.244 6.492 46.453 14.518 37.835 47.89-1.877 7.27 34.648 2.02 36.307-5.46 2.993-13.49-26.738-25.82-21.39-32.91 8.018-10.623 41.144 4.123 25.65 8.952-5.92 1.844 2.27 9.924 3.682 18.225 2.396 14.092 65.44-17.086 75.033 4.935 11.806 27.106-11.293 52.085-78.175 78.527-16.038 6.34-113.434 11.993-161.708 6.265z" fill="#b49858"/><path d="M313.522 680.92c-9.05-4.546-10.257-8.366-4.556-14.436 8.422-8.967 12.276-6.438 13.523 8.87.855 10.52.875 10.508-8.97 5.565zm18.58-15.17c2.26-17.38 18.53 6.014 1.957 6.396-1.777.04-2.413-2.908-1.96-6.396zm-28.776-31.983c4.386-.094 6.557 4.518 3.12 7.556-9.205 8.136-9.527-7.42-3.12-7.556zm14.564.9c-1.558-4.02 4.93-11.32 7.613-8.49 7.116 7.51-4.8 15.76-7.614 8.49z" fill="#b49858"/><path style="line-height:normal;text-indent:0;text-align:start;text-decoration-line:none;text-decoration-style:solid;text-decoration-color:#000000;text-transform:none;block-progression:tb;isolation:auto;mix-blend-mode:normal" d="M211.825 366.79c-13.892-10.287-19.847-5.234-28.65 8.657-7.068 11.15-10.97 39.387-1.477 51.17 43.94 20.936 74.124-51.037 30.127-59.827z" color="#000" font-family="sans-serif" white-space="normal" overflow="visible" solid-color="#000000" fill="#c8c8c8"/><path d="M188.098 442.685c-11.78-12.292-13.987-23.05-9.357-39.727 3.076-11.073 7.807-10.317 9.583 1.53 2.534 16.905 10.293 16.002 7.89-1.503-1.837-13.378 10.737-27.68-2.418-18.137-17.186 12.466-11.31-8.016-2.79-21.942 8.86-14.486 21.01-17.94 60.098-14.706 12.2 1.01 24.18-4.56 21.542 9.01-2.46 12.66 6.74 51.144-5.655 59.977-27.465 19.573-51.34 54.248-78.892 25.498zm97.814-282.167c6.187-3.65 16.28-13.744 16.397-18.45.967-39.315 2.51-78.093 4.212-118.267 1.138-26.83 17.946-17.85 34.116 16.154 17.66 37.142 42.233 82.923 65.673 106.913 14.974 15.323 9.61 17.694-40.075 18.858-28.86.676-45.938 4.588-54.382 16.047-29.036 39.402-51-6.462-25.94-21.252z" fill="#b49858"/><path d="M829.432 929.945c-38.226 6.31-67.406-8.41-64.106-37.482 3.3-29.07 16.492-22.47 57.918-79.66 41.426-57.187 46.524-110.795 69.036-80.592 52.736 70.754 17.057 184.546-62.848 197.736zM192.834 802.217c-17.955-5.524-33.463-45.174-47.51-51.18-25.883-11.067-36.815-89.588-27.638-99.737 14.6-16.144-8.67-44.085 8.825-53.24 6.094-3.186-25.172-48.35 15.93-59.175 16.653-4.387 34.184-12.81 63.9-11.576 50.23 2.084 96.96 36.18 75.94 73.715-8.32 14.854-10.084 47.952-21.437 62.428-3.82 4.872 14.245 4.627 13.353 14.744-1.833 20.786-17.302-1.86-16.698 2.874 3.537 27.716 35.34 9.828 22.38 25.19-9.667 11.46 14.034 27.677 17.88 29 43.138 14.86 34.907-5.32 132.182-9.497 12.265-.527 10.145 11.76 1.826 18.438-23.942 19.218-44.73 47.25-82.256 53.744-17.53 3.034-9.813-6.594-22.68-7.38-101.55-6.196-93.51 24.11-133.996 11.652z" fill="#9e7036"/><path d="M287.392 675.626c1.25-3.8 10.776-4.908 9.733-1.425-1.25 3.803-10.775 4.91-9.733 1.427zm22.742-2.71c-2.766-5.086 6.904-6.68 7.047-1.836 0 3.212-5.323 5-7.045 1.835zm165.85-171.256c-30.377 0-82.867-33.015-76.73-45.142 8.78-17.346 50.71-29.582 69.986-43.123 37.96-26.665 72.264-25.658 117.207 39.056 6.88 9.91-39.465 39.52-62.904 48.263-10.023 3.74-31.62.95-47.56.95zm374.486-41.478c-35.926-96.517-225.547-186.09-224.463-258.903.1-6.685 23.012-4.465 30.506-3.635 41.695 4.614 131.1-105.345 157.07-136.676 19.065-24.658 36.93-13.91 44.24-7.33 9.243 8.315 17.46 19.894 28.59 66.27 13.712 57.136 8.472 117.356-7.588 160.98-17.494 47.52-4.775 78.872 2.913 109.347 21.67 85.887-20.366 99.237-31.27 69.944zm-648.806-15.787c-5.736-7.06-12.478-9.81-5.997-18.503 9.28-12.45-.707-28.31 6.216-41.7 5.733-11.087 4.494-12.757-4.144-5.487-11.653 9.807-14.644 3.292-5.723-12.464 19.873-35.096 85.72-14.845 78.338 24.093-5.91 31.174-55.54 70.254-68.692 54.063z" fill="#9e7036"/><path d="M181.596 408.665c-.777-3.1-.33-6.532 1.026-7.89 4.525.18 2.244 20.49-1.026 7.89z" fill="#433b2c"/><path d="M397.876 255.114c3.002-9.134 15.368-15.373 18.14-9.29 5.005 10.986-30.344 85.335-40.292 78.776-19.076-12.578 7.475-24.816 22.152-69.486zm-111.792-72.3c-2.994-10.788 13.83-25.397 27.164-21.033 12.375 4.053-22.78 36.836-27.164 21.035zm47.548-27.51C312.422 127.5 302.185 57.9 315.426 21.796c4.486-12.23 19.645 22.77 20.94 26.76 18.54 57.145 69.438 97.852 62.26 108.01-3.866 5.47-60.403 4.756-64.994-1.262z" fill="#9e7036"/><path d="M283.858 776.747c-5.422-9.17-87.62 10.58-122.157-21.49-18.233-16.934-34.2-28.267-29.41-55.865 5.76-33.185 3.74-49.3-7.996-81.05-4.763-12.884-1.518-15.518 14.835-16.558 5.287-.336-35.99-34.348-4.705-58.483 9.312-7.18 83.567 13.424 87.75-2.437 4.35-16.496 63.404 15.223 59.943 32.42-8.895 44.207-16.836 77.832-38.475 93.83-10.408 7.692 24.157 34.83 21.767 43.836-4.78 18.015 46.47 37.982 56.342 36.27 22.045-3.827 111.23-23.875 108.942-13.553-7.978 35.976-132.54 67.263-146.836 43.08z" fill="#433b2c"/><path d="M263.892 677.654c.57-4.33 6.2-3.97 5.906-.844-.39 4.15-6.398 4.577-5.906.844z" fill="#433b2c"/><path style="line-height:normal;text-indent:0;text-align:start;text-decoration-line:none;text-decoration-style:solid;text-decoration-color:#000000;text-transform:none;block-progression:tb;isolation:auto;mix-blend-mode:normal" d="M462.645 429.245c-6.95 11.225-1.347 30.81 4.485 50.564 5.832 19.752 25.918 19.446 40.634 20.632 14.716 1.187 26.255-6.81 34.772-11.242 8.518-4.433 16.443-12.123 20.863-16.913-50.174-76.403-81.747-55.23-100.756-43.042z" color="#000" font-family="sans-serif" white-space="normal" overflow="visible" solid-color="#000000" fill="#c8c8c8"/><path d="M426.678 452.84c15.115-17.904 32.646-28.21 50.987-41.356 29.772-21.34 71.985-6.852 100.074 34.362 4.567 6.704 3.182 9.798-10.86 24.276-10.74 11.07-20.3 17.802-12.684 8.528 12.193-14.844-1.75-3.107-6.647 2.778-15.387 18.494-26.763 7.85-42.98 11.43-10.757 2.374-12.78 1.168-16.584-10.26-7.014-21.082 2.5-48.19 16.914-48.19 17.04 0 11.416-10.78-7.71-14.783-36.748-7.69-45.03 68.382-8.517 78.756-15.404.29-81.408-22.546-61.995-45.54zm-218.923-18.01c-5.928-2.534-5.903-2.977-6.897-22.665-1.703-33.728 20.867-53.745 4.915-42.005-17.317 12.745-19.342 6.813-11.36-2.49 30.3-35.31 58.017-14.222 71.667 11.336 5.42 10.15-6.702 35.33-17.57 45.338-10.723 9.874-30.364 14.927-40.755 10.486zm529.197-121.932c-30.588-13.635 55.136-60.238 35.647-83.436-11.958-14.23-8.96-26.166 8.32-26.397 12.652-.168 50.37-8.545 51 2.174 3.38 57.557-27.43 80.87-60.876 114.195-19.78 19.71-20.932-.67-34.093-6.538z" fill="#433b2c"/></symbol><symbol id="download" viewBox="0 0 1792 2048"><title>Download</title><path d="M896.072 1564.666l767.91-796.648h-512V-.002H640.018v767.984h-512l768.054 796.684zM-.01 1792.018h1791.983V2048H-.01v-255.982z"/></symbol><symbol id="dropdown" viewBox="0 0 2048 2048"><title>Dropdown</title><path clip-rule="evenodd" d="M2032.623 550.606L1893.28 400.44c-19.874-21.458-52.372-21.957-71.777-1l-797.522 836.29-800.023-836.32c-19.405-20.958-50.968-20.46-71.075.998L15.41 548.36C-4.7 569.82-5.166 604 14.238 625.207l973.374 1021.946c19.873 21.955 51.904 22.454 71.543 1.497l974.403-1020.7c19.64-20.957 19.172-55.637-.935-77.344z" fill-rule="evenodd"/></symbol><symbol id="facebook" viewBox="0 0 2048 2048.0001"><title>Facebook</title><path d="M1093.827 2048v-793.034H826.99v-309.04h266.837v-227.9c0-264.52 161.69-408.602 397.668-408.602 113.028 0 210.125 8.326 238.447 12.086v276.43l-163.632.192c-128.328 0-153.274 60.91-153.274 150.397v197.393H1719.2l-39.9 309.04h-266.264V2048H2048V0L-.147.707 0 2048h1093.827z" fill="#3d539e"/></symbol><symbol id="feedback" viewBox="0 0 2048 2048"><title>Feedback</title><path d="M0 128v1280h512v512l512-512h1024V128H0z"/></symbol><symbol id="github" viewBox="0 0 2048 2048"><title>GitHub</title><path d="M1024 0C458.5 0 0 470.09 0 1049.888c0 463.938 293.376 857.39 700.312 996.185 51.188 9.615 69.876-22.81 69.876-50.494 0-24.993-.938-107.785-1.438-195.445-284.75 63.44-344.938-123.803-344.938-123.803-46.624-121.24-113.688-153.536-113.688-153.536-93.062-65.104 7.06-63.823 7.06-63.823 102.812 7.304 156.94 108.166 156.94 108.166 91.376 160.456 239.75 114.06 298 87.15 9.308-67.67 35.808-114.064 65-140.208-227.312-26.528-466.436-116.625-466.436-518.922 0-114.702 39.938-208.256 105.312-281.757-10.438-26.66-45.688-133.48 10.124-277.977 0 0 85.876-28.195 281.624 107.653 81.624-23.39 169.188-34.926 256.25-35.31 87 .386 174.624 12.047 256.376 35.435C1475.75 407.23 1561.75 435.552 1561.75 435.552c56 144.627 20.75 251.32 10.25 277.85 65.624 73.502 105.25 167.058 105.25 281.76 0 403.32-239.5 492.133-467.624 518.15 36.876 32.553 69.5 96.378 69.5 194.292 0 140.337-1.376 253.5-1.376 288.103 0 27.94 18.624 60.62 70.5 50.366C1754.876 1907.02 2048 1513.57 2048 1049.888 2048 470.09 1589.5 0 1024 0z"/></symbol><symbol id="google-plus" viewBox="0 0 2048 2048"><title>Google Plus</title><path d="M.5.515V599.42c79.147-190.644 299.6-335.75 544-335.75h635.594l-161.28 169.25H899.75c88.29 70.093 139.813 188.894 139.813 327.158 0 124.184-63.47 239.457-183.563 333.312-100.588 78.55-115.78 108.232-115.78 169.53 0 46.525 107.216 126.283 158.75 164.626l13.25 9.875c206.435 154.85 239.78 254.126 239.78 431.846.01 60.347-16.915 121.243-49.313 178.25H2047.5V.516H.5zm446.188 388.688v.28c-60.075 0-113.285 24.484-153.938 70.813-58.74 66.976-83.803 171.072-68.75 285.657 26.017 197.7 168.61 350.477 331.75 355.375h7.844c61.104 0 112.72-22.037 149.28-63.72 51.422-58.627 71.544-153.33 56.657-266.718C741.57 558.026 605.6 394.075 453.28 389.484l-6.59-.28zM.5 935.953v686.625c106.844-92.512 259.43-155.625 442.063-155.625 19.282 0 37.743-.278 55.968-.5 6.653 0 13.25-.282 19.846-.282-35.895-36.98-67.03-78.845-67.03-143.623 0-32.778 7.764-67.044 23.124-102.187-12.968.64-24.475.936-35.69.936-213.575 0-373.84-109.293-438.28-285.343zm515.344 630.062c-231.674 0-427.375 146.385-427.375 319.625 0 59.368 18.94 114.526 52.373 161.875h758.593c24.855-42.688 37.47-93.614 37.47-152.47 0-20.422-2.475-41.224-7.345-61.842-21.396-83.727-97.565-135.246-202.967-206.563-17.335-11.742-35.34-23.895-53.844-36.75-47.86-15.276-98.623-23.315-150.907-23.844l-6-.03z" fill="#bb3627" stroke="#000" stroke-width=".97"/><path fill="#fff" d="M1182.163 736.718V569.766h278.253V291.512h166.952v278.254h278.253v166.952h-278.25v278.253h-166.952V736.72"/></symbol><symbol id="home" viewBox="0 0 2048 2048"><title>Home</title><path d="M1025.156 128L0 1152h256v768h512v-640h512v640h512v-768h256z"/></symbol><symbol id="info" viewBox="0 0 2048 2048"><title>Info</title><path d="M1024 .002a1024 1024 0 0 0-1024 1024 1024 1024 0 0 0 1024 1024 1024 1024 0 0 0 1024-1024 1024 1024 0 0 0-1024-1024zm-78.22 484.193h203.13l-32.717 192.223h-203.13l32.718-192.223zm-40.954 340.71h203.13l-113.153 677.61h-203.13l113.153-677.61z"/></symbol><symbol id="linked-in" viewBox="0 0 2048 2048"><title>LinkedIn</title><path clip-rule="evenodd" fill="#007bb6" fill-rule="evenodd" d="M0-.01h2048v2048H0z"/><path clip-rule="evenodd" d="M811.585 1406.58V896H640v512h171.585zm-84.72-579.45c59.1 0 95.872-39.178 95.872-88.098-1.1-50.02-36.773-88.097-94.75-88.097-57.98 0-95.872 38.078-95.872 88.097 0 48.92 36.773 88.097 93.653 88.097zM896 1408h172.82v-286.15c0-15.235 1.118-30.492 5.575-41.354 12.272-30.45 40.172-61.98 86.957-61.98 61.337 0 85.86 46.765 85.86 115.295V1408H1408v-293.757c0-156.627-74.91-229.488-186.43-229.488-91.415 0-131.545 51.096-153.85 85.9h1.12V896H896c2.197 47.842 0 512 0 512z" fill="#fff" fill-rule="evenodd"/></symbol><symbol id="mobile" viewBox="0 0 1153.25 2048"><title>Mobile</title><path d="M1004.765 0H148.302C66.345 0 0 66.92 0 149.186V1898.81C0 1981.26 66.344 2048 148.3 2048h856.463c82.14 0 148.486-66.74 148.486-149.19V149.186C1153.25 66.92 1086.906 0 1004.765 0zM479.677 128h193.89v63.925h-193.89zm97.036 1841.84c-52.156 0-94.552-42.56-94.552-95.12 0-52.46 42.488-94.93 94.554-94.93 52.06 0 94.378 42.56 94.378 94.93 0 52.56-42.227 95.12-94.377 95.12zm465.49-250.1H111.225V328.53H1042.2z" fill-rule="nonzero"/></symbol><symbol id="modal-close" viewBox="0 0 2048.0001 2047.9999"><title>Modal-Close</title><path d="M161.72 0L0 161.72l862.344 862.436L0 1886.47 161.625 2048l862.313-862.406L1886.28 2048 2048 1886.28l-862.344-862.343 862.25-862.312L1886.28 0l-862.217 862.312L161.718 0z" fill-rule="evenodd"/></symbol><symbol id="process-checkmark" viewBox="0 0 2048 1743"><title>Process Checkmark</title><path d="M269.838 753.917L0 940.667 823.35 1743S1750.487 380.417 2048 117.583L1937.297 0C1556.757 193.667 777.3 1176.72 777.3 1176.72"/></symbol><symbol id="remove" viewBox="0 0 24 24"><path fill="currentColor" d="M24 13.63v-2.346m-24-.032v2.314"/><path fill="currentColor" stroke="currentColor" stroke-width="2" stroke-miterlimit="10" d="M0 12h24"/></symbol><symbol id="search" viewBox="0 0 24 24"><path fill="none" stroke="currentColor" stroke-width="2.702" stroke-miterlimit="10" d="M11.71 11.722l10.274 11.17"/><circle fill="none" stroke="currentColor" stroke-width="2" stroke-miterlimit="10" cx="7.3" cy="7.301" r="6.278"/></symbol><symbol id="source" viewBox="0 0 1904.99 2048"><title>Source</title><path d="M363.964 163.667c-62.615 84.38-94.356 197.48-94.356 336.14v161.39c0 78.43-13.58 119.224-25.03 139.764-29.16 52.52-89.255 83.49-183.707 94.688L0 902.858v237.235l61.596 6.65c93.075 10.055 152.796 41.773 182.574 96.984 16.875 31.283 25.438 77.637 25.438 137.73v204.177c0 153.25 48.217 266.765 143.334 337.39 86.77 64.416 196.486 103.716 326.096 116.82l75.92 7.68v-253.607l-60.89-7.196c-48.216-5.704-91.8-25.377-133.19-60.15-34.976-29.383-52.7-84.86-52.7-164.887v-149.76c0-105.23-13.957-187.735-42.767-252.473-20.5-45.534-54.563-96.765-110.98-137.16 47.817-33.044 84.823-77.67 110.702-133.634 28.962-62.65 43.05-146.65 43.05-256.793V520.917c0-71.825 8.328-127.078 24.74-164.07 17.15-38.512 52.3-90.75 159.025-100.03l63.014-5.46V0l-74.81 6.353C553.844 22.1 430.793 73.573 363.963 163.667zm1479.38 731.893c-93.97-10.055-154.067-41.222-183.753-95.273-16.474-29.994-25.18-78.073-25.18-139.032v-161.36c0-134.077-23.314-233.818-70.95-304.437C1490.67 85.568 1356.496 21.925 1164.63 6.31L1090.04.25v251.12l63.06 5.44c108.056 9.333 142.678 58.532 159.236 94.543 11.178 24.48 24.503 73.748 24.503 169.328v110.87c0 110.81 14.07 195.157 43.096 257.932 20.37 43.855 54.367 93.32 110.96 132.445-48.056 34.286-85.558 80.47-111.304 137.742-28.773 63.902-42.754 146.492-42.754 252.51v149.657c0 72.53-16.945 126.39-50.34 160.03-36.19 36.42-80.826 57.67-136.44 64.95l-60.024 7.865V2048l76.352-8.192c128.468-13.793 237.46-52.395 323.903-114.73 95.63-68.954 144.114-183.162 144.114-339.444v-204.178c0-58.973 8.632-105.116 25.46-136.798 30.34-56.35 90.252-88.37 183.15-97.87l61.976-6.338V902.156l-61.646-6.596z"/></symbol><symbol id="switch" viewBox="0 0 1815.4399 2048"><title>AXA Switch</title><title>switch</title><path d="M-.003 2048H232.92L1815.443 0H1577.25L-.004 2048z"/></symbol><symbol id="tablet" viewBox="0 0 1664 2048"><title>Mobile</title><path d="M1492.3 0h-1344C66.34 0-.006 66.92-.006 149.186V1898.81C-.006 1981.26 66.34 2048 148.3 2048h1367.998c82.142 0 148.487-66.74 148.487-149.19V149.186C1664.785 66.92 1574.44 0 1492.3 0zM832.086 1983.025c-52.156 0-94.552-42.56-94.552-95.12 0-52.46 42.486-94.93 94.552-94.93 52.06 0 94.378 42.56 94.378 94.93 0 52.56-42.228 95.12-94.378 95.12zM1536 1728H128V320h1408z" fill-rule="nonzero"/></symbol><symbol id="twitter" viewBox="0 0 2048 2048"><title>Twitter</title><path d="M1706.667 642.667C1656.89 664.89 1603.11 680 1545.333 688c60.445-35.556 101.778-87.556 124-156-57.777 33.778-117.333 56.444-178.666 68-54.223-58.667-122.223-88-204-88-77.334 0-143.334 27.333-198 82-54.667 54.667-82 120.667-82 198 0 25.778 2.222 47.11 6.666 64-114.666-6.222-222.222-35.11-322.666-86.667-100.445-51.555-185.778-120.444-256-206.666C408.89 607.11 396 654.222 396 704c0 101.333 40.444 179.11 121.333 233.333-41.777-.89-86.222-12.444-133.333-34.666v2.666c0 66.667 22.222 126 66.667 178 44.444 52 99.11 84.222 164 96.667-25.778 7.11-48.445 10.667-68 10.667-11.556 0-28.89-1.778-52-5.334 18.666 56 51.777 102.222 99.333 138.667 47.556 36.444 101.556 55.11 162 56-103.11 80-219.11 120-348 120-23.11 0-45.333-1.333-66.667-4C472.89 1579.555 616 1621.333 770.667 1621.333c99.555 0 192.89-15.778 280-47.333 87.11-31.555 161.777-73.778 224-126.667 62.222-52.89 115.777-113.777 160.666-182.666 44.89-68.89 78.223-140.89 100-216C1557.11 973.557 1568 898.667 1568 824c0-16-.444-28-1.333-36 56-40 102.666-88.444 140-145.333zM2048 2048H0V0h2048z" fill="#55acee"/></symbol><symbol id="upload" viewBox="0 0 1792 2048"><title>Upload</title><path d="M640 896v640h512V896h512L896.026 0 128 896zM0 1792h1792v256H0z"/></symbol><symbol id="xing" viewBox="0 0 2048 2048"><title>Xing</title><path d="M0 0v2048h2048V0H0zm1341.28 384h299.532l-445 768 286.75 512H1183l-286.72-512 445-768zM485.626 640H767.97l166.84 256-222.468 384H429.97l222.467-384-166.812-256z" fill="#00605e"/></symbol><symbol id="youtube" viewBox="0 0 2048 2048"><title>Youtube</title><path fill="#ca272c" stroke="#000" stroke-width=".256" stroke-linecap="round" d="M0 .128h2047.744v2047.744H0z"/><path d="M1030.335 590.758c-145.168 0-359.663 8.793-423.867 10.94-69.735 6.235-95.55 9.89-133.742 42.573-58.194 51.757-72 153.453-72 309.04v148.074c0 177.59 23.584 267.812 62.417 300.812 44.825 38.453 74.38 41.527 104.228 46.135 11.59 1.755 93.604 16.284 457.538 16.284 226.95 0 422.022-10.72 442.186-13.314 32.417-4.092 78.984-10.03 114.15-49.105 52.06-59.17 62.42-157.4 62.42-299.71V929.99c0-92.117-5.132-222.306-62.42-276.812-43.396-36.736-59.29-47.13-149.09-51.648-25.397-1.254-247.012-10.77-401.818-10.77zM896 854l335.16 173.007L896 1201.37V854z" fill="#fff"/></symbol></svg>